<svg width="549" height="321" viewBox="0 0 549 321" fill="none" xmlns="http://www.w3.org/2000/svg">
<g id="Frame 1">
<rect width="549" height="321" fill="white"/>
<g id="cookies-svgrepo-com 1" clip-path="url(#clip0_1_2)">
<g id="cookie">
<path id="Vector" d="M245.897 141.851L239.051 143.22C236.772 143.676 234.483 142.491 233.539 140.368L226.206 123.868C225.585 122.471 224.356 121.438 222.873 121.067L219.053 120.113C216.842 119.56 215.292 117.574 215.292 115.295V88.8196C215.292 87.5824 214.83 86.3896 213.996 85.475L204.773 75.3539C196.457 72.7206 187.493 71.5458 178.174 72.1595C142.355 74.5192 113.339 103.657 111.153 139.486C108.603 181.296 141.756 216 183.015 216C222.369 216 254.328 184.423 254.985 145.226L249.091 142.279C248.103 141.785 246.979 141.635 245.897 141.851Z" fill="#FFE6A1"/>
<g id="Group">
<path id="Vector_2" d="M205.36 193.655C204.923 193.655 204.493 193.63 204.057 193.622C201.329 196.682 197.369 198.62 192.946 198.62C186.433 198.62 180.91 194.433 178.886 188.609C169.976 185.082 161.94 179.837 155.186 173.27C154.164 173.578 153.103 173.793 151.981 173.793C145.81 173.793 140.808 168.791 140.808 162.62C140.808 160.465 141.447 158.471 142.504 156.765C142.429 156.629 142.348 156.498 142.273 156.362C134.523 155.837 128.395 149.4 128.395 141.517C128.395 136.871 130.523 132.724 133.856 129.992C133.54 127.255 133.36 124.477 133.36 121.655C133.36 107.494 137.465 94.3 144.525 83.1648C124.391 95.9302 111.015 118.396 111.015 144C111.015 183.765 143.251 216 183.015 216C208.619 216 231.085 202.624 243.851 182.49C232.715 189.551 219.521 193.655 205.36 193.655Z" fill="#FFD796"/>
<path id="Vector_3" d="M166.878 131.586C170.306 131.586 173.085 128.807 173.085 125.379C173.085 121.951 170.306 119.172 166.878 119.172C163.45 119.172 160.671 121.951 160.671 125.379C160.671 128.807 163.45 131.586 166.878 131.586Z" fill="#FFD796"/>
<path id="Vector_4" d="M232.671 172.552C236.099 172.552 238.878 169.773 238.878 166.345C238.878 162.917 236.099 160.138 232.671 160.138C229.243 160.138 226.464 162.917 226.464 166.345C226.464 169.773 229.243 172.552 232.671 172.552Z" fill="#FFD796"/>
<path id="Vector_5" d="M176.188 172.552C178.587 172.552 180.533 170.606 180.533 168.207C180.533 165.807 178.587 163.862 176.188 163.862C173.788 163.862 171.843 165.807 171.843 168.207C171.843 170.606 173.788 172.552 176.188 172.552Z" fill="#FFD796"/>
<path id="Vector_6" d="M209.705 132.827C212.105 132.827 214.05 130.882 214.05 128.483C214.05 126.083 212.105 124.138 209.705 124.138C207.306 124.138 205.361 126.083 205.361 128.483C205.361 130.882 207.306 132.827 209.705 132.827Z" fill="#FFD796"/>
<path id="Vector_7" d="M192.326 94.3448C194.726 94.3448 196.671 92.3995 196.671 90C196.671 87.6005 194.726 85.6553 192.326 85.6553C189.926 85.6553 187.981 87.6005 187.981 90C187.981 92.3995 189.926 94.3448 192.326 94.3448Z" fill="#FFD796"/>
</g>
<g id="Group_2">
<path id="Vector_8" d="M179.403 135.952L176.532 140.736C174.817 143.595 176.351 147.299 179.586 148.108L188.129 150.244C190.79 150.909 193.486 149.291 194.151 146.631L195.128 142.721C195.326 141.931 195.326 141.104 195.128 140.313L194.095 136.179C193.452 133.608 190.903 131.995 188.304 132.514L182.687 133.638C181.315 133.912 180.123 134.753 179.403 135.952Z" fill="#B97850"/>
<path id="Vector_9" d="M193.733 166.689L190.74 171.678C189.252 174.158 190.19 177.381 192.777 178.674L202.306 183.439C205.147 184.86 208.574 183.284 209.344 180.202L210.326 176.276L211.473 171.686C212.187 168.83 210.273 165.982 207.358 165.566L198.693 164.328C196.715 164.046 194.761 164.976 193.733 166.689Z" fill="#B97850"/>
<path id="Vector_10" d="M141.491 137.069L137.838 143.158C136.666 145.112 136.974 147.613 138.585 149.224L144.334 154.974C146.427 157.067 149.874 156.876 151.723 154.565L156.652 148.403C157.62 147.193 157.967 145.601 157.591 144.097L156.467 139.6C156.002 137.739 154.505 136.312 152.624 135.935L146.723 134.755C144.665 134.344 142.571 135.27 141.491 137.069Z" fill="#B97850"/>
<path id="Vector_11" d="M161.707 96.7553L158.89 101.451C157.256 104.174 158.564 107.711 161.577 108.716L167.69 110.754C169.475 111.348 171.442 110.884 172.772 109.554L176.062 106.264C177.295 105.031 177.791 103.24 177.368 101.548L176.508 98.1062C175.955 95.8953 173.969 94.3445 171.69 94.3445H165.964C164.221 94.3447 162.604 95.2599 161.707 96.7553Z" fill="#B97850"/>
<path id="Vector_12" d="M221.676 135.132L218.802 138.006C216.863 139.945 216.863 143.089 218.802 145.029L220.209 146.435C221.72 147.946 224.029 148.321 225.941 147.365L234.074 143.299C236.155 142.258 237.235 139.911 236.67 137.653L236.302 136.18C235.659 133.608 233.11 131.995 230.511 132.515L224.214 133.774C223.253 133.966 222.37 134.439 221.676 135.132Z" fill="#B97850"/>
<path id="Vector_13" d="M203.213 99.6907L199.916 104.088C198.704 105.703 198.591 107.891 199.63 109.622L202.681 114.707C204.14 117.138 207.335 117.857 209.693 116.284L215.889 112.153C218.261 110.572 218.818 107.323 217.107 105.043L213.739 100.552C213.133 99.7436 212.295 99.1395 211.337 98.8203L208.756 97.9597C206.728 97.2832 204.495 97.9807 203.213 99.6907Z" fill="#B97850"/>
<path id="Vector_14" d="M160.722 178.14L157.48 182.192C155.398 184.794 156.419 188.667 159.513 189.905L163.868 191.647C165.052 192.12 166.373 192.12 167.557 191.647L172.444 189.692C175.372 188.52 176.481 184.951 174.732 182.327L173.892 181.068C173.413 180.348 172.754 179.767 171.981 179.381L166.821 176.8C164.726 175.753 162.184 176.311 160.722 178.14Z" fill="#B97850"/>
</g>
<g id="Group_3">
<path id="Vector_15" d="M150.495 154.384L144.746 148.635C143.135 147.024 142.827 144.523 143.999 142.569L147.653 136.48C147.964 135.961 148.376 135.539 148.831 135.177L146.723 134.756C144.665 134.344 142.571 135.271 141.491 137.07L137.838 143.159C136.666 145.113 136.974 147.614 138.585 149.225L144.334 154.974C146.274 156.914 149.361 156.867 151.277 155.013C151.002 154.831 150.738 154.627 150.495 154.384Z" fill="#A5694B"/>
<path id="Vector_16" d="M172.664 108.986L166.551 106.949C163.537 105.944 162.228 102.407 163.863 99.6832L166.68 94.988C166.823 94.7489 167.012 94.5523 167.19 94.3447H165.964C164.22 94.3447 162.604 95.2599 161.706 96.7556L158.889 101.451C157.255 104.174 158.563 107.711 161.577 108.716L167.69 110.754C169.474 111.348 171.441 110.884 172.771 109.554L173.234 109.092C173.044 109.052 172.851 109.049 172.664 108.986Z" fill="#A5694B"/>
<path id="Vector_17" d="M192.84 148.816L184.297 146.68C181.062 145.871 179.528 142.168 181.244 139.308L184.114 134.525C184.455 133.955 184.909 133.474 185.433 133.089L182.687 133.638C181.315 133.912 180.122 134.753 179.403 135.953L176.532 140.737C174.817 143.596 176.351 147.3 179.586 148.109L188.129 150.244C189.929 150.694 191.729 150.083 192.921 148.828C192.894 148.821 192.867 148.823 192.84 148.816Z" fill="#A5694B"/>
<path id="Vector_18" d="M207.319 114.278L204.268 109.193C203.229 107.461 203.342 105.274 204.554 103.658L207.851 99.2616C208.212 98.7798 208.661 98.4023 209.147 98.0893L208.755 97.9591C206.728 97.2833 204.495 97.9808 203.213 99.6905L199.915 104.087C198.704 105.702 198.591 107.89 199.63 109.621L202.681 114.707C204.135 117.13 207.312 117.848 209.668 116.297C208.724 115.904 207.888 115.226 207.319 114.278Z" fill="#A5694B"/>
<path id="Vector_19" d="M224.194 146.104C222.255 144.165 222.255 141.021 224.194 139.082L227.068 136.208C227.761 135.515 228.644 135.042 229.605 134.85L234.906 133.79C233.772 132.712 232.152 132.186 230.511 132.515L224.214 133.774C223.253 133.966 222.37 134.439 221.676 135.132L218.802 138.006C216.863 139.945 216.863 143.089 218.802 145.028L220.209 146.435C221.627 147.853 223.736 148.224 225.571 147.482L224.194 146.104Z" fill="#A5694B"/>
<path id="Vector_20" d="M198.928 178.258C196.341 176.964 195.403 173.742 196.891 171.262L199.884 166.273C200.277 165.619 200.832 165.123 201.444 164.721L198.693 164.328C196.715 164.046 194.761 164.976 193.733 166.689L190.74 171.678C189.252 174.158 190.19 177.381 192.777 178.674L202.306 183.439C204.206 184.389 206.349 183.979 207.803 182.696L198.928 178.258Z" fill="#A5694B"/>
<path id="Vector_21" d="M168.834 190.817L164.479 189.075C161.385 187.838 160.364 183.964 162.445 181.362L165.687 177.31C165.893 177.052 166.124 176.827 166.369 176.621C164.37 175.856 162.082 176.439 160.722 178.14L157.48 182.192C155.398 184.794 156.419 188.667 159.513 189.905L163.868 191.647C165.052 192.12 166.373 192.12 167.557 191.647L169.294 190.952C169.14 190.907 168.983 190.877 168.834 190.817Z" fill="#A5694B"/>
</g>
<path id="Vector_22" d="M130.875 173.791C130.502 173.791 130.123 173.706 129.767 173.529C128.54 172.915 128.043 171.424 128.656 170.198L131.139 165.232C131.753 164.005 133.24 163.513 134.47 164.122C135.697 164.735 136.194 166.226 135.581 167.453L133.098 172.418C132.663 173.289 131.786 173.791 130.875 173.791Z" fill="#C98850"/>
<path id="Vector_23" d="M175.567 206.069H173.084C171.713 206.069 170.601 204.958 170.601 203.586C170.601 202.214 171.713 201.103 173.084 201.103H175.567C176.938 201.103 178.05 202.213 178.05 203.586C178.05 204.958 176.938 206.069 175.567 206.069Z" fill="#925F4A"/>
<path id="Vector_24" d="M165.634 158.896C165.262 158.896 164.882 158.812 164.526 158.635C163.299 158.021 162.802 156.53 163.415 155.303L165.898 150.338C166.511 149.114 167.998 148.619 169.229 149.228C170.456 149.841 170.953 151.332 170.34 152.559L167.857 157.524C167.422 158.395 166.545 158.896 165.634 158.896Z" fill="#C98850"/>
<g id="Group_4">
<path id="Vector_25" d="M150.737 119.172C150.365 119.172 149.985 119.088 149.629 118.911L144.664 116.428C143.437 115.814 142.94 114.323 143.554 113.097C144.166 111.872 145.654 111.375 146.885 111.986L151.85 114.469C153.077 115.082 153.574 116.573 152.961 117.8C152.525 118.67 151.649 119.172 150.737 119.172Z" fill="#925F4A"/>
<path id="Vector_26" d="M180.533 84.4135H175.567C174.196 84.4135 173.085 83.3032 173.085 81.9307C173.085 80.5582 174.196 79.4478 175.567 79.4478H180.533C181.904 79.4478 183.016 80.5582 183.016 81.9307C183.016 83.3032 181.904 84.4135 180.533 84.4135Z" fill="#925F4A"/>
</g>
<path id="Vector_27" d="M190.466 121.655C189.555 121.655 188.678 121.153 188.243 120.283L185.76 115.317C185.146 114.09 185.644 112.599 186.871 111.986C188.1 111.375 189.59 111.872 190.202 113.097L192.685 118.062C193.298 119.289 192.801 120.78 191.574 121.393C191.218 121.57 190.838 121.655 190.466 121.655Z" fill="#C98850"/>
<g id="Group_5">
<path id="Vector_28" d="M122.33 133.812C121.997 133.648 121.694 133.404 121.452 133.088C120.622 131.995 120.836 130.438 121.929 129.608L126.35 126.251C127.442 125.421 128.998 125.637 129.829 126.728C130.659 127.82 130.446 129.378 129.353 130.207L124.931 133.564C124.156 134.152 123.148 134.215 122.33 133.812Z" fill="#925F4A"/>
<path id="Vector_29" d="M215.291 161.379C214.656 161.379 214.021 161.137 213.536 160.652L208.571 155.687C207.601 154.717 207.601 153.145 208.571 152.176C209.54 151.206 211.112 151.206 212.082 152.176L217.047 157.141C218.017 158.111 218.017 159.682 217.047 160.652C216.562 161.137 215.927 161.379 215.291 161.379Z" fill="#925F4A"/>
</g>
<path id="Vector_30" d="M220.257 186.207C219.622 186.207 218.986 185.964 218.502 185.48C217.532 184.51 217.532 182.938 218.502 181.969L220.984 179.486C221.954 178.516 223.526 178.516 224.495 179.486C225.465 180.456 225.465 182.027 224.495 182.997L222.012 185.48C221.527 185.964 220.892 186.207 220.257 186.207Z" fill="#C98850"/>
</g>
<g id="clumbles">
<g id="Group_6">
<path id="Vector_31" d="M225.222 81.9309V88.1949C225.222 89.9516 226.996 91.1526 228.627 90.5001L236.076 87.5208C237.018 87.1436 237.636 86.2307 237.636 85.2157V81.9309C237.636 80.5598 236.524 79.4481 235.153 79.4481H227.705C226.334 79.4481 225.222 80.5598 225.222 81.9309Z" fill="#FFE6A1"/>
<path id="Vector_32" d="M230.53 101.504L228.946 112.595C228.573 115.204 230.304 117.65 232.888 118.166L237.435 119.076C239.408 119.471 241.424 118.635 242.54 116.961L244.25 114.396C245.136 113.067 245.329 111.393 244.768 109.898L239.588 96.0857C238.944 94.3678 236.74 93.8905 235.443 95.1879L231.935 98.6954C231.175 99.4551 230.683 100.441 230.53 101.504Z" fill="#FFE6A1"/>
</g>
<g id="Group_7">
<path id="Vector_33" d="M242.977 114.665L238.43 113.756C235.846 113.239 234.116 110.793 234.489 108.185L236.073 97.0942C236.214 96.1051 236.676 95.2017 237.347 94.4665C236.673 94.4325 235.981 94.6493 235.443 95.1871L231.935 98.6948C231.175 99.4545 230.682 100.44 230.531 101.504L228.946 112.594C228.574 115.203 230.304 117.649 232.888 118.165L237.435 119.075C239.408 119.469 241.424 118.634 242.541 116.96L244.037 114.716C243.684 114.723 243.332 114.736 242.977 114.665Z" fill="#FFD796"/>
<path id="Vector_34" d="M233.593 85.5343C231.962 86.1865 230.188 84.9856 230.188 83.2292V79.4481H227.705C226.334 79.4481 225.222 80.5598 225.222 81.9309V88.1949C225.222 89.9516 226.996 91.1526 228.627 90.5001L236.075 87.5208C237.018 87.1436 237.636 86.231 237.636 85.2157V83.9171L233.593 85.5343Z" fill="#FFD796"/>
<path id="Vector_35" d="M243.839 126.147L242.372 129.082C242.023 129.781 242.023 130.604 242.372 131.303L243.042 132.643C243.709 133.978 245.397 134.427 246.639 133.598L250.642 130.93C251.333 130.469 251.747 129.694 251.747 128.864V126.189C251.747 124.495 250.087 123.298 248.48 123.834L245.275 124.902C244.65 125.11 244.134 125.558 243.839 126.147Z" fill="#FFD796"/>
</g>
</g>
</g>
</g>
<defs>
<clipPath id="clip0_1_2">
<rect width="144" height="144" fill="white" transform="translate(111 72)"/>
</clipPath>
</defs>
</svg>
